<?xml version="1.0" standalone="no"?><!DOCTYPE svg PUBLIC "-//W3C//DTD SVG 1.1//EN" "http://www.w3.org/Graphics/SVG/1.1/DTD/svg11.dtd"><svg t="1666023106567" class="icon" viewBox="0 0 1024 1024" version="1.1" xmlns="http://www.w3.org/2000/svg" p-id="2231" xmlns:xlink="http://www.w3.org/1999/xlink" width="200" height="200"><path d="M128 384h128c2.56 0 4.608 0 7.168-0.512 17.408 50.176 65.024 86.016 120.832 86.016 55.808 0 102.912-35.84 120.832-85.504H896c23.552 0 42.496-18.944 42.496-42.496 0-23.552-18.944-42.496-42.496-42.496h-391.168c-17.408-49.664-65.024-85.504-120.832-85.504-55.808 0-103.424 35.84-120.832 86.016-2.56-0.512-4.608-0.512-7.168-0.512h-128c-23.552 0-42.496 18.944-42.496 42.496 0 23.552 18.944 42.496 42.496 42.496z m256-85.504c23.552 0 42.496 18.944 42.496 42.496 0 23.552-18.944 42.496-42.496 42.496s-42.496-18.944-42.496-42.496c0-23.04 18.944-42.496 42.496-42.496zM896 640h-114.176c-17.408-49.664-65.024-85.504-120.832-85.504-55.808 0-103.424 35.84-120.832 86.016-2.56-0.512-4.608-0.512-7.168-0.512H128c-23.552 0-42.496 18.944-42.496 42.496 0 23.552 18.944 42.496 42.496 42.496h405.504c2.56 0 4.608 0 7.168-0.512 17.408 50.176 65.024 86.016 120.832 86.016 55.808 0 102.912-35.84 120.832-85.504H896c23.552 0 42.496-18.944 42.496-42.496S919.552 640 896 640z m-234.496 85.504c-23.552 0-42.496-18.944-42.496-42.496s18.944-42.496 42.496-42.496c23.552 0 42.496 18.944 42.496 42.496 0 23.04-18.944 42.496-42.496 42.496z" p-id="2232"></path></svg>