<?xml version="1.0" standalone="no"?><!DOCTYPE svg PUBLIC "-//W3C//DTD SVG 1.1//EN" "http://www.w3.org/Graphics/SVG/1.1/DTD/svg11.dtd"><svg t="1659591738787" class="icon" viewBox="0 0 1638 1024" version="1.1" xmlns="http://www.w3.org/2000/svg" p-id="1334" xmlns:xlink="http://www.w3.org/1999/xlink" width="319.921875" height="200"><path d="M102.473523 598.635504c-22.220533 0-43.826674 6.143926-61.64406 17.714988a89.086931 89.086931 0 0 0-36.863558 46.079447c-6.143926 18.431779-5.119939 37.989944 2.867166 55.909729 7.987104 17.817386 22.52773 32.972404 41.369103 43.109883l274.940701 236.745959c9.523086 8.191902 20.786951 14.643024 33.177202 19.14857a116.939397 116.939397 0 0 0 78.33506 0c12.390251-4.505546 23.654116-10.956669 33.177202-19.14857a88.472538 88.472538 0 0 0 22.118134-28.671656 77.618269 77.618269 0 0 0 0-67.378392 88.472538 88.472538 0 0 0-22.220533-28.569257l-114.686624-98.610017h772.393932c27.135674 0 53.247361-9.318288 72.293532-25.80449a82.328612 82.328612 0 0 0 30.00284-62.360852 82.328612 82.328612 0 0 0-30.00284-62.258453 111.205066 111.205066 0 0 0-72.293532-25.80449H102.473523z m1433.582797-173.258721c22.220533 0 43.826674-6.143926 61.64406-17.714987a89.086931 89.086931 0 0 0 36.863558-46.079447 76.594281 76.594281 0 0 0-2.867165-55.909729 92.46609 92.46609 0 0 0-41.266705-43.109883L1315.386968 25.816778A111.307464 111.307464 0 0 0 1242.991037 0.012288c-27.033276 0-53.144962 9.215889-72.293532 25.80449a82.328612 82.328612 0 0 0-29.900442 62.360852c0 23.34692 10.751871 45.772251 30.00284 62.258453l114.686624 98.610016H513.092596c-27.135674 0-53.247361 9.318288-72.293533 25.804491a82.328612 82.328612 0 0 0-30.00284 62.360851c0 23.34692 10.751871 45.669852 30.00284 62.258453 19.14857 16.486202 45.157858 25.80449 72.293533 25.804491H1536.05632z" p-id="1335"></path><path d="M102.473523 598.635504c-22.220533 0-43.826674 6.143926-61.64406 17.714988a89.086931 89.086931 0 0 0-36.863558 46.079447c-6.143926 18.431779-5.119939 37.989944 2.867166 55.909729 7.987104 17.817386 22.52773 32.972404 41.369103 43.109883l274.940701 236.745959c9.523086 8.191902 20.786951 14.643024 33.177202 19.14857a116.939397 116.939397 0 0 0 78.33506 0c12.390251-4.505546 23.654116-10.956669 33.177202-19.14857a88.472538 88.472538 0 0 0 22.118134-28.671656 77.618269 77.618269 0 0 0 0-67.378392 88.472538 88.472538 0 0 0-22.220533-28.569257l-114.686624-98.610017h772.393932c27.135674 0 53.247361-9.318288 72.293532-25.80449a82.328612 82.328612 0 0 0 30.00284-62.360852 82.328612 82.328612 0 0 0-30.00284-62.258453 111.205066 111.205066 0 0 0-72.293532-25.80449H102.473523z m1433.582797-173.258721c22.220533 0 43.826674-6.143926 61.64406-17.714987a89.086931 89.086931 0 0 0 36.863558-46.079447 76.594281 76.594281 0 0 0-2.867165-55.909729 92.46609 92.46609 0 0 0-41.266705-43.109883L1315.386968 25.816778A111.307464 111.307464 0 0 0 1242.991037 0.012288c-27.033276 0-53.144962 9.215889-72.293532 25.80449a82.328612 82.328612 0 0 0-29.900442 62.360852c0 23.34692 10.751871 45.772251 30.00284 62.258453l114.686624 98.610016H513.092596c-27.135674 0-53.247361 9.318288-72.293533 25.804491a82.328612 82.328612 0 0 0-30.00284 62.360851c0 23.34692 10.751871 45.669852 30.00284 62.258453 19.14857 16.486202 45.157858 25.80449 72.293533 25.804491H1536.05632z" p-id="1336"></path></svg>