<?xml version="1.0" standalone="no"?><!DOCTYPE svg PUBLIC "-//W3C//DTD SVG 1.1//EN" "http://www.w3.org/Graphics/SVG/1.1/DTD/svg11.dtd"><svg t="1664283203356" class="icon" viewBox="0 0 1638 1024" version="1.1" xmlns="http://www.w3.org/2000/svg" p-id="1237" xmlns:xlink="http://www.w3.org/1999/xlink" width="319.921875" height="200"><path d="M238.56058107 583.38545557c-18.309155 0-36.11206658 5.06243903-50.79314026 14.59670031a73.40536917 73.40536917 0 0 0-30.3746358 37.96829434c-5.06243903 15.1873179-4.21869973 31.30274927 2.36247199 46.06819712 6.5811709 14.68107367 18.56227752 27.1684237 34.08709049 35.521449l226.5441567 195.0726591c7.84678106 6.74991925 17.12791983 12.06547998 27.33717206 15.77793548a96.35509397 96.35509397 0 0 0 64.54610047 0c10.20925223-3.71245551 19.49039099-9.02801707 27.33717205-15.77793549a72.89912495 72.89912495 0 0 0 18.22478082-23.62471656 63.95548288 63.95548288 0 0 0 0-55.51808422 72.89912495 72.89912495 0 0 0-18.30915499-23.54034237l-94.49886622-81.25215025h636.43298841c22.35910639 0 43.87447348-7.67803271 59.56803479-21.26224456a67.83668591 67.83668591 0 0 0 24.72157836-51.38375867 67.83668591 67.83668591 0 0 0-24.72157836-51.29938449 91.63015082 91.63015082 0 0 0-59.56803479-21.26224457H238.56058107z m1181.23582517-142.76078696c18.309155 0 36.11206658-5.06243903 50.79314026-14.59669949a73.40536917 73.40536917 0 0 0 30.37463581-37.96829434 63.11174277 63.11174277 0 0 0-2.36247116-46.06819712 76.18971039 76.18971039 0 0 0-34.00271714-35.521449L1237.97046312 111.39736956A91.71452417 91.71452417 0 0 0 1178.31805416 90.135125c-22.27473303 0-43.79009931 7.59365854-59.56803479 21.26224457a67.83668591 67.83668591 0 0 0-24.63720502 51.38375867c0 19.23726929 8.85926871 37.71517264 24.72157836 51.29938448l94.49886622 81.25214942H576.90027135c-22.35910639 0-43.87447348 7.67803271-59.56803562 21.26224539a67.83668591 67.83668591 0 0 0-24.72157836 51.38375785c0 19.23726929 8.85926871 37.63079846 24.72157836 51.29938448 15.77793548 13.58421185 37.2089284 21.26224457 59.56803562 21.2622454H1419.79640624z" p-id="1238"></path><path d="M238.56058107 583.38545557c-18.309155 0-36.11206658 5.06243903-50.79314026 14.59670031a73.40536917 73.40536917 0 0 0-30.3746358 37.96829434c-5.06243903 15.1873179-4.21869973 31.30274927 2.36247199 46.06819712 6.5811709 14.68107367 18.56227752 27.1684237 34.08709049 35.521449l226.5441567 195.0726591c7.84678106 6.74991925 17.12791983 12.06547998 27.33717206 15.77793548a96.35509397 96.35509397 0 0 0 64.54610047 0c10.20925223-3.71245551 19.49039099-9.02801707 27.33717205-15.77793549a72.89912495 72.89912495 0 0 0 18.22478082-23.62471656 63.95548288 63.95548288 0 0 0 0-55.51808422 72.89912495 72.89912495 0 0 0-18.30915499-23.54034237l-94.49886622-81.25215025h636.43298841c22.35910639 0 43.87447348-7.67803271 59.56803479-21.26224456a67.83668591 67.83668591 0 0 0 24.72157836-51.38375867 67.83668591 67.83668591 0 0 0-24.72157836-51.29938449 91.63015082 91.63015082 0 0 0-59.56803479-21.26224457H238.56058107z m1181.23582517-142.76078696c18.309155 0 36.11206658-5.06243903 50.79314026-14.59669949a73.40536917 73.40536917 0 0 0 30.37463581-37.96829434 63.11174277 63.11174277 0 0 0-2.36247116-46.06819712 76.18971039 76.18971039 0 0 0-34.00271714-35.521449L1237.97046312 111.39736956A91.71452417 91.71452417 0 0 0 1178.31805416 90.135125c-22.27473303 0-43.79009931 7.59365854-59.56803479 21.26224457a67.83668591 67.83668591 0 0 0-24.63720502 51.38375867c0 19.23726929 8.85926871 37.71517264 24.72157836 51.29938448l94.49886622 81.25214942H576.90027135c-22.35910639 0-43.87447348 7.67803271-59.56803562 21.26224539a67.83668591 67.83668591 0 0 0-24.72157836 51.38375785c0 19.23726929 8.85926871 37.63079846 24.72157836 51.29938448 15.77793548 13.58421185 37.2089284 21.26224457 59.56803562 21.2622454H1419.79640624z" p-id="1239"></path></svg>