<svg width="16" height="16" viewBox="0 0 16 16" fill="none" xmlns="http://www.w3.org/2000/svg">
<path fill-rule="evenodd" clip-rule="evenodd" d="M8.88744 12.2305C8.33515 12.2305 7.88744 11.7828 7.88744 11.2305C7.88744 10.6782 8.33515 10.2305 8.88744 10.2305H11.5282L8.13849 6.66884L5.56849 8.72484C5.1706 9.04315 4.59699 9.01139 4.23669 8.65108L0.292893 4.70728C-0.0976311 4.31676 -0.0976311 3.6836 0.292893 3.29307C0.683417 2.90255 1.31658 2.90255 1.70711 3.29307L5.01801 6.60398L7.6056 4.53391C8.01088 4.20968 8.59685 4.24941 8.95466 4.62537L13.1458 9.02908V5.97207C13.1458 5.41979 13.5935 4.97207 14.1458 4.97207C14.6981 4.97207 15.1458 5.41979 15.1458 5.97207V11.2305C15.1458 11.7828 14.6981 12.2305 14.1458 12.2305H8.88744Z" fill="#E96A5C"/>
</svg>
