<svg width="16" height="16" viewBox="0 0 16 16" fill="none" xmlns="http://www.w3.org/2000/svg">
<path fill-rule="evenodd" clip-rule="evenodd" d="M8.88744 3C8.33515 3 7.88744 3.44772 7.88744 4C7.88744 4.55228 8.33515 5 8.88744 5H11.5282L8.13849 8.56163L5.56849 6.50563C5.1706 6.18731 4.59699 6.21908 4.23669 6.57939L0.292893 10.5232C-0.0976311 10.9137 -0.0976311 11.5469 0.292893 11.9374C0.683417 12.3279 1.31658 12.3279 1.70711 11.9374L5.01801 8.62649L7.6056 10.6966C8.01088 11.0208 8.59685 10.9811 8.95466 10.6051L13.1458 6.20139V9.25839C13.1458 9.81068 13.5935 10.2584 14.1458 10.2584C14.6981 10.2584 15.1458 9.81068 15.1458 9.25839V4C15.1458 3.44772 14.6981 3 14.1458 3H8.88744Z" fill="#29C995"/>
</svg>
