<?xml version="1.0" standalone="no"?><!DOCTYPE svg PUBLIC "-//W3C//DTD SVG 1.1//EN" "http://www.w3.org/Graphics/SVG/1.1/DTD/svg11.dtd"><svg t="1669708597345" class="icon" viewBox="0 0 1024 1024" version="1.1" xmlns="http://www.w3.org/2000/svg" p-id="2738" xmlns:xlink="http://www.w3.org/1999/xlink" width="200" height="200"><path d="M466.48888853 102.4a45.51111147 45.51111147 0 0 1 5.3248 90.7036448L466.48888853 193.42222187H238.93333333a45.51111147 45.51111147 0 0 0-45.19253333 40.18631146L193.42222187 238.93333333v546.13333334a45.51111147 45.51111147 0 0 0 40.18631146 45.19253333L238.93333333 830.57777813h546.13333334a45.51111147 45.51111147 0 0 0 45.19253333-40.18631146L830.57777813 785.06666667v-227.5555552l0.31857707-5.3248a45.51111147 45.51111147 0 0 1 90.38506667 0L921.6 557.51111147v227.5555552a136.53333333 136.53333333 0 0 1-136.53333333 136.53333333H238.93333333a136.53333333 136.53333333 0 0 1-136.53333333-136.53333333V238.93333333a136.53333333 136.53333333 0 0 1 136.53333333-136.53333333h227.5555552z m409.6 0a45.51111147 45.51111147 0 0 1 45.19253334 40.18631147L921.6 147.91111147v182.04444373a45.51111147 45.51111147 0 0 1-90.7036448 5.3248L830.57777813 329.9555552V257.77493333l-286.40142293 286.40142187a45.51111147 45.51111147 0 0 1-68.13013333-60.07466667l3.77742293-4.27804373L766.1340448 193.42222187H694.0444448a45.51111147 45.51111147 0 0 1-45.19253333-40.1863104L648.53333333 147.91111147a45.51111147 45.51111147 0 0 1 40.18631147-45.19253334L694.0444448 102.4h182.04444373z" p-id="2739"></path></svg>