<?xml version="1.0" standalone="no"?><!DOCTYPE svg PUBLIC "-//W3C//DTD SVG 1.1//EN" "http://www.w3.org/Graphics/SVG/1.1/DTD/svg11.dtd"><svg t="1659608991401" class="icon" viewBox="0 0 1024 1024" version="1.1" xmlns="http://www.w3.org/2000/svg" p-id="1417" xmlns:xlink="http://www.w3.org/1999/xlink" width="200" height="200"><path d="M932.331207 355.808682l-82.797751-78.876442c-12.026918-11.495822-30.987758-11.531638-42.379203-0.109494L463.235366 597.451184c-11.383258 11.379165-10.828626 29.934776 1.206478 41.387619l82.772168 78.902024c12.036128 11.495822 31.013341 11.522428 42.379203 0.143263l343.927073-320.662207C944.894338 385.826346 944.366312 367.287107 932.331207 355.808682z" p-id="1418"></path><path d="M174.092014 270.492574l-82.601276 80.756255c-12.001335 11.733229-12.311397 30.467919-0.689708 41.813315l402.142963 378.813628c11.639085 11.388375 30.804586 11.05273 42.804898-0.654916l82.601276-80.738859c12.001335-11.742439 12.311397-30.467919 0.672312-41.839921L216.888725 269.845845C205.249641 258.45747 186.084139 258.758322 174.092014 270.492574z" p-id="1419"></path></svg>