<?xml version="1.0" standalone="no"?><!DOCTYPE svg PUBLIC "-//W3C//DTD SVG 1.1//EN" "http://www.w3.org/Graphics/SVG/1.1/DTD/svg11.dtd"><svg t="1669893790242" class="icon" viewBox="0 0 1024 1024" version="1.1" xmlns="http://www.w3.org/2000/svg" p-id="3806" xmlns:xlink="http://www.w3.org/1999/xlink" width="200" height="200"><path d="M200.17347015 761.91061333c-16.58164793 16.58164793-17.06016541 44.85575111 0 61.91591652 16.58164793 17.06016541 44.85575111 16.58164793 61.91591652 0l249.66095189-250.13946937 250.16027477 250.13946937c16.58164793 16.58164793 44.85575111 17.06016541 61.43739904 0 17.55948715-17.06016541 17.06016541-45.35507285 0-61.91591652l-249.66095189-250.16027477 249.66095189-249.66095189c17.06016541-16.58164793 17.55948715-45.35507285 0-61.91591652-16.58164793-17.06016541-44.85575111-16.58164793-61.43739904 0L511.75033856 450.31293952l-249.66095189-250.13946937c-17.06016541-16.58164793-45.35507285-17.06016541-61.91591652 0-17.06016541 16.58164793-16.58164793 45.35507285 0 61.91591652l249.66095303 249.66095189z" p-id="3807"></path></svg>