<?xml version="1.0" standalone="no"?><!DOCTYPE svg PUBLIC "-//W3C//DTD SVG 1.1//EN" "http://www.w3.org/Graphics/SVG/1.1/DTD/svg11.dtd"><svg t="1673430768009" class="icon" viewBox="0 0 1389 1024" version="1.1" xmlns="http://www.w3.org/2000/svg" p-id="1793" xmlns:xlink="http://www.w3.org/1999/xlink" width="271.2890625" height="200"><path d="M146.285714 73.142857a73.142857 73.142857 0 0 0-146.285714 0v804.571429a146.285714 146.285714 0 0 0 146.285714 146.285714h1170.285715a73.142857 73.142857 0 1 0 0-146.285714H146.285714V73.142857z m1206.857143 109.714286a73.142857 73.142857 0 1 0-146.285714 0c0 83.748571-41.691429 156.452571-103.058286 210.066286-62.683429 54.857143-137.581714 82.505143-189.513143 82.505142-45.348571 0-72.923429-12.946286-114.761143-32.548571-7.460571-3.510857-15.506286-7.314286-24.137142-11.190857-59.465143-27.062857-130.194286-50.176-241.152-28.013714-78.262857 15.652571-139.264 59.392-186.660572 106.422857-44.470857 44.105143-81.042286 95.378286-110.006857 135.899428l-4.534857 6.363429a73.142857 73.142857 0 1 0 119.076571 84.992l2.413715-3.364572c30.500571-42.715429 60.635429-84.918857 96.036571-120.027428 35.84-35.474286 72.265143-58.806857 112.347429-66.779429 71.972571-14.409143 110.884571-0.950857 151.990857 17.700572 5.851429 2.633143 12.068571 5.632 18.651428 8.777143 42.569143 20.406857 100.352 48.054857 180.736 48.054857 94.354286 0 202.313143-45.568 285.915429-118.637715C1285.12 428.617143 1353.142857 318.537143 1353.142857 182.857143z" p-id="1794"></path></svg>