<?xml version="1.0" standalone="no"?><!DOCTYPE svg PUBLIC "-//W3C//DTD SVG 1.1//EN" "http://www.w3.org/Graphics/SVG/1.1/DTD/svg11.dtd"><svg t="1662956260451" class="icon" viewBox="0 0 1024 1024" version="1.1" xmlns="http://www.w3.org/2000/svg" p-id="1604" xmlns:xlink="http://www.w3.org/1999/xlink" width="200" height="200"><path d="M715.725 241.69l-59.32 73.047 308.7 28.626-92.278-295.168-73.37 90.403a464.297 464.297 0 0 0-275.993-90.403C266.696 48.195 58.5 255.81 58.5 511.862c0 256.118 208.195 463.667 464.963 463.667 192.62 0.169 365.409-118.415 434.524-298.204a66.181 66.181 0 0 0-38.272-85.484c-34.243-13.086-72.622 4.004-85.801 38.206-49.362 128.45-172.785 213.176-310.39 213.058-183.46 0-332.206-148.295-332.206-331.238 0-182.876 148.746-331.177 332.206-331.177 70.195-0.005 136.832 21.755 192.2 61" p-id="1605"></path></svg>