<?xml version="1.0" standalone="no"?><!DOCTYPE svg PUBLIC "-//W3C//DTD SVG 1.1//EN" "http://www.w3.org/Graphics/SVG/1.1/DTD/svg11.dtd"><svg t="1666022549067" class="icon" viewBox="0 0 1071 1024" version="1.1" xmlns="http://www.w3.org/2000/svg" p-id="1707" xmlns:xlink="http://www.w3.org/1999/xlink" width="209.1796875" height="200"><path d="M543.37419044 385.45068304a118.87218597 118.87218597 0 0 0-84.76501242 35.11301522 119.32938695 119.32938695 0 0 0-35.15873508 84.76501243c0 32.04977035 12.52729985 62.04213748 35.15873508 84.76501241a119.32938695 119.32938695 0 0 0 84.76501242 35.15873509c32.00405049 0 62.04213748-12.52729985 84.76501243-35.15873509a119.32938695 119.32938695 0 0 0 35.11301522-84.76501241c0-32.00405049-12.52729985-62.04213748-35.11301522-84.76501243a118.87218597 118.87218597 0 0 0-84.76501243-35.11301522z m441.79305147 252.37479485l-70.08886966-59.89329336a384.8258422 384.8258422 0 0 0 0-123.7185137l70.08886966-59.89329336a34.29005418 34.29005418 0 0 0 9.96697459-37.71905911l-0.96012061-2.74320469a474.20858186 474.20858186 0 0 0-85.31365432-147.58439108l-1.92024242-2.28600248a34.42721375 34.42721375 0 0 0-37.62761941-10.14985644l-87.00529626 30.95248896a374.12734506 374.12734506 0 0 0-106.71064617-61.58493651l-16.8249869-90.98294311a34.3814939 34.3814939 0 0 0-27.66064237-27.5234828l-2.88036546-0.5486407a482.89539565 482.89539565 0 0 0-170.17010525 0l-2.88036545 0.5486407a34.33577404 34.33577404 0 0 0-27.66064239 27.5234828l-16.91642659 91.44014287A378.7450723 378.7450723 0 0 0 304.62397683 224.97323204l-87.64537666-31.18108823a34.29005418 34.29005418 0 0 0-37.6276194 10.1955763l-1.92024243 2.24028262a477.86618729 477.86618729 0 0 0-85.31365433 147.53867124l-0.91440075 2.78892453a34.42721375 34.42721375 0 0 0 9.92125475 37.71905911l70.95755176 60.53337376a376.73338895 376.73338895 0 0 0 0 122.16403134L101.3525385 637.5968774a34.33577404 34.33577404 0 0 0-9.96697461 37.71905911l0.91440076 2.83464439a475.39730295 475.39730295 0 0 0 85.35937418 147.53867124l1.92024243 2.24028383a34.42721375 34.42721375 0 0 0 37.58189832 10.19557509l87.69109774-31.18108823a371.01838032 371.01838032 0 0 0 105.97912607 61.40205586l16.91642659 91.39442302a34.33577404 34.33577404 0 0 0 27.61492253 27.52348281l2.92608531 0.54864069c56.23568794 10.10413537 113.8429776 10.10413537 170.17010525 0l2.88036425-0.54864069a34.3814939 34.3814939 0 0 0 27.66064358-27.52348281l16.8249869-90.98294189a376.73338895 376.73338895 0 0 0 106.71064617-61.63065636l87.00529626 30.9982076a34.33577404 34.33577404 0 0 0 37.62761941-10.19557509l1.92024242-2.28600369a477.86618729 477.86618729 0 0 0 85.31365312-147.49295138l0.91440196-2.78892453a34.61009439 34.61009439 0 0 0-10.14985523-37.49045862z m-441.79305147 55.91564773a188.36669508 188.36669508 0 1 1 0-376.73338895 188.36669508 188.36669508 0 0 1 0 376.73338895z" p-id="1708"></path></svg>