<?xml version="1.0" standalone="no"?><!DOCTYPE svg PUBLIC "-//W3C//DTD SVG 1.1//EN" "http://www.w3.org/Graphics/SVG/1.1/DTD/svg11.dtd"><svg t="1662544222635" class="icon" viewBox="0 0 1071 1024" version="1.1" xmlns="http://www.w3.org/2000/svg" p-id="2036" xmlns:xlink="http://www.w3.org/1999/xlink" width="209.1796875" height="200"><path d="M452.518203 370.226576a97.947663 97.947663 0 0 0-69.844218 28.932233 98.324385 98.324385 0 0 0-28.969905 69.844218c0 26.408197 10.322177 51.121146 28.969905 69.844218a98.324385 98.324385 0 0 0 69.844218 28.969905c26.370525 0 51.121146-10.322177 69.844218-28.969905a98.324385 98.324385 0 0 0 28.932233-69.844218c0-26.370525-10.322177-51.121146-28.932233-69.844218a97.947663 97.947663 0 0 0-69.844218-28.932233z m364.026257 207.950423l-57.751449-49.350553a317.086723 317.086723 0 0 0 0-101.940914l57.751449-49.350553a28.254134 28.254134 0 0 0 8.212534-31.079547l-0.791115-2.260331a390.735831 390.735831 0 0 0-70.296285-121.605791l-1.582231-1.883608a28.36715 28.36715 0 0 0-31.004203-8.363224l-71.690155 25.504065a308.271433 308.271433 0 0 0-87.926863-50.744424l-13.863362-74.967635a28.329478 28.329478 0 0 0-22.791667-22.678651l-2.373348-0.452066a397.893545 397.893545 0 0 0-140.215846 0l-2.373348 0.452066a28.291806 28.291806 0 0 0-22.791667 22.678651l-13.938706 75.344356A312.076323 312.076323 0 0 0 255.794089 237.997231l-72.217565-25.692425a28.254134 28.254134 0 0 0-31.004203 8.400896l-1.582231 1.845936a393.749605 393.749605 0 0 0-70.296285 121.568119l-0.753443 2.298003a28.36715 28.36715 0 0 0 8.174862 31.079547l58.467221 49.877963a310.418747 310.418747 0 0 0 0 100.66006L88.303585 577.988638a28.291806 28.291806 0 0 0-8.212534 31.079547l0.753443 2.335675a391.715307 391.715307 0 0 0 70.333957 121.568119l1.582231 1.845937a28.36715 28.36715 0 0 0 30.96653 8.400895l72.255238-25.692425a305.709725 305.709725 0 0 0 87.324109 50.593735l13.938706 75.306684a28.291806 28.291806 0 0 0 22.753995 22.678651l2.41102 0.452066c46.336779 8.325551 93.803723 8.325551 140.215846 0l2.373347-0.452066a28.329478 28.329478 0 0 0 22.791668-22.678651l13.863362-74.967634a310.418747 310.418747 0 0 0 87.926863-50.782096l71.690155 25.541736a28.291806 28.291806 0 0 0 31.004203-8.400895l1.582231-1.883609a393.749605 393.749605 0 0 0 70.296284-121.530447l0.753444-2.298003a28.517839 28.517839 0 0 0-8.363223-30.891186z m-364.026257 46.073074a155.209374 155.209374 0 1 1 0-310.418747 155.209374 155.209374 0 0 1 0 310.418747z" p-id="2037"></path></svg>