<?xml version="1.0" standalone="no"?><!DOCTYPE svg PUBLIC "-//W3C//DTD SVG 1.1//EN" "http://www.w3.org/Graphics/SVG/1.1/DTD/svg11.dtd"><svg t="1666625611319" class="icon" viewBox="0 0 1024 1024" version="1.1" xmlns="http://www.w3.org/2000/svg" p-id="1508" xmlns:xlink="http://www.w3.org/1999/xlink" width="200" height="200"><path d="M332.8 522.24a25.6 25.6 0 0 1 25.6 25.6v153.6a25.6 25.6 0 0 0 25.6 25.6h51.2a25.6 25.6 0 0 0 25.6-25.6V328.0384c0-22.784-27.5712-34.2272-43.6992-18.0992l-168.6016 168.6016c-16.128 16.128-4.7104 43.6992 18.0992 43.6992H332.8z m230.4 194.2016c0 22.784 27.5712 34.2272 43.6992 18.0992l168.6016-168.6016c16.128-16.128 4.7104-43.6992-18.0992-43.6992H691.2a25.6 25.6 0 0 1-25.6-25.6v-153.6a25.6 25.6 0 0 0-25.6-25.6h-51.2a25.6 25.6 0 0 0-25.6 25.6v373.4016z" p-id="1509"></path><path d="M512 947.2c240.3584 0 435.2-194.8416 435.2-435.2S752.3584 76.8 512 76.8 76.8 271.6416 76.8 512s194.8416 435.2 435.2 435.2z m0 76.8C229.2224 1024 0 794.7776 0 512S229.2224 0 512 0s512 229.2224 512 512-229.2224 512-512 512z" p-id="1510"></path></svg>