<?xml version="1.0" standalone="no"?><!DOCTYPE svg PUBLIC "-//W3C//DTD SVG 1.1//EN" "http://www.w3.org/Graphics/SVG/1.1/DTD/svg11.dtd"><svg t="1662977760193" class="icon" viewBox="0 0 1024 1024" version="1.1" xmlns="http://www.w3.org/2000/svg" p-id="2476" xmlns:xlink="http://www.w3.org/1999/xlink" width="200" height="200"><path d="M783.85303703 317.85809541L783.96954548 861.52533333h-0.15534459L240.14696297 861.48649718 240.18579911 317.81925925 783.85303703 317.85809541zM356.65540741 162.47466667h310.68918518v77.6722963h-310.68918518V162.47466667z m543.70607407 77.6722963h-155.34459259V136.5321197C745.01688889 111.56047645 724.66674725 84.80237037 667.53877333 84.80237037h-311.07754666C299.33325275 84.80237037 278.98311111 111.56047645 278.98311111 136.5321197V240.14696297H123.63851852a38.83614815 38.83614815 0 1 0 0 77.67229628h38.83614815V861.48649718C162.47466667 904.36160475 197.31069155 939.19762963 240.18579911 939.19762963h543.62840178A77.74996859 77.74996859 0 0 0 861.52533333 861.48649718V317.81925925h38.83614815a38.83614815 38.83614815 0 1 0 0-77.67229628z" p-id="2477"></path><path d="M628.50844445 728.70570667a38.83614815 38.83614815 0 0 0 38.83614814-38.83614815V434.3277037a38.83614815 38.83614815 0 1 0-77.67229629 0v255.54185482a38.83614815 38.83614815 0 0 0 38.83614815 38.83614815M395.49155555 728.70570667a38.83614815 38.83614815 0 0 0 38.83614815-38.83614815V434.3277037a38.83614815 38.83614815 0 1 0-77.67229629 0v255.54185482a38.83614815 38.83614815 0 0 0 38.83614814 38.83614815" p-id="2478"></path></svg>