<?xml version="1.0" standalone="no"?><!DOCTYPE svg PUBLIC "-//W3C//DTD SVG 1.1//EN" "http://www.w3.org/Graphics/SVG/1.1/DTD/svg11.dtd"><svg t="1661244094404" class="icon" viewBox="0 0 1024 1024" version="1.1" xmlns="http://www.w3.org/2000/svg" p-id="2199" xmlns:xlink="http://www.w3.org/1999/xlink" width="200" height="200"><path d="M691.898647 611.560727c0-11.310545 4.375273-22.178909 12.148364-30.184727a40.96 40.96 0 0 1 29.370182-12.497455h110.685091c11.008 0 21.573818 4.514909 29.370181 12.497455 7.773091 8.005818 12.148364 18.850909 12.148364 30.184727 0 11.310545-4.375273 22.155636-12.148364 30.161455a40.96 40.96 0 0 1-29.370181 12.497454h-110.708364a40.96 40.96 0 0 1-29.323636-12.497454 43.287273 43.287273 0 0 1-12.171637-30.161455zM0.000465 113.757091h0.768a129.210182 129.210182 0 0 1 40.727273-81.152A122.647273 122.647273 0 0 1 124.556102 0h636.555636c16.360727 0 32.535273 3.304727 47.662546 9.751273 15.104 6.423273 28.834909 15.848727 40.401454 27.741091 11.566545 11.869091 20.712727 25.995636 26.996364 41.518545 6.260364 15.546182 9.472 32.186182 9.472 48.989091v47.616a179.479273 179.479273 0 0 1 99.607273 65.256727A188.229818 188.229818 0 0 1 1024.000465 355.560727v483.560728a187.531636 187.531636 0 0 1-52.689454 130.722909A177.454545 177.454545 0 0 1 844.102284 1024H179.898647a177.454545 177.454545 0 0 1-127.208727-54.155636A187.508364 187.508364 0 0 1 0.000465 839.121455V113.780364zM844.102284 256H83.037556v583.121455c0 54.923636 43.380364 99.537455 96.861091 99.537454h664.203637c25.693091 0 50.338909-10.472727 68.491636-29.160727a100.980364 100.980364 0 0 0 28.392727-70.376727V355.560727a101.003636 101.003636 0 0 0-28.392727-70.4A95.557818 95.557818 0 0 0 844.102284 256z m-41.518546-85.341091V128a43.287273 43.287273 0 0 0-12.148363-30.161455 40.96 40.96 0 0 0-29.34691-12.497454H124.509556a40.96 40.96 0 0 0-29.346909 12.497454A43.287273 43.287273 0 0 0 83.037556 128c0 11.310545 4.375273 22.178909 12.148364 30.161455a40.96 40.96 0 0 0 29.346909 12.497454h678.074182z" p-id="2200"></path></svg>