<?xml version="1.0" standalone="no"?><!DOCTYPE svg PUBLIC "-//W3C//DTD SVG 1.1//EN" "http://www.w3.org/Graphics/SVG/1.1/DTD/svg11.dtd"><svg t="1660658742619" class="icon" viewBox="0 0 1024 1024" version="1.1" xmlns="http://www.w3.org/2000/svg" p-id="1512" xmlns:xlink="http://www.w3.org/1999/xlink" width="200" height="200"><path d="M875.573248 276.987904h-1.81316267v-94.48106667a87.38133333 87.38133333 0 0 0-87.38133333-87.38133333l-631.31921067 98.304c-62.28104533 12.73582933-87.38133333 50.036736-87.38133333 98.304v63.700992h0.458752a89.78432 89.78432 0 0 0-0.458752 8.93474133v491.52a87.38133333 87.38133333 0 0 0 87.38133333 87.38133334h720.51370667a87.38133333 87.38133333 0 0 0 87.38133333-87.38133334v-491.52a87.38133333 87.38133333 0 0 0-87.38133333-87.38133333z m-706.80576-8.31214933l620.691456-96.65467734c4.521984 1.33256533 7.84247467 5.52686933 7.84247466 10.48576v94.48106667H155.05954133c-2.490368 0-4.93704533 0.17476267-7.38372267 0.38229333 3.18941867-3.42971733 9.26242133-6.160384 21.09166934-8.69444266z m717.72842666 412.942336H721.32334933c-39.40898133 0-71.47793067-32.06894933-71.47793067-71.47793067s32.06894933-71.48885333 71.47793067-71.48885333h165.17256533v142.966784zM721.32334933 462.19264c-81.690624 0-147.93659733 66.224128-147.93659733 147.94752 0 81.690624 66.23505067 147.93659733 147.93659733 147.93659733h165.17256533v97.81248a10.92266667 10.92266667 0 0 1-10.92266666 10.92266667H155.05954133a10.92266667 10.92266667 0 0 1-10.92266667-10.92266667v-491.52c0-6.01838933 4.89335467-10.92266667 10.92266667-10.92266666h642.24187733v1.98792533h76.45866667v-1.98792533h1.81316267c6.029312 0 10.92266667 4.90427733 10.92266666 10.92266666v97.82340267H721.32334933z" p-id="1513"></path><path d="M744.501248 610.12923733m-38.22933334 0a38.22933333 38.22933333 0 1 0 76.45866667 0 38.22933333 38.22933333 0 1 0-76.45866667 0Z" p-id="1514"></path></svg>