<svg width="44" height="48" viewBox="0 0 44 48" fill="none" xmlns="http://www.w3.org/2000/svg">
<path d="M31.2016 12.9167H10.9651C10.9331 12.588 10.9167 12.2545 10.9167 11.9167C10.9167 11.8506 10.9173 11.7848 10.9185 11.7191C11.0238 6.19539 15.5344 1.75 21.0833 1.75C26.5975 1.75 31.0863 6.13985 31.2456 11.6154C31.2485 11.7154 31.25 11.8158 31.25 11.9167C31.25 12.2545 31.2336 12.588 31.2016 12.9167ZM34.7139 12.9167C34.7179 12.8612 34.7216 12.8056 34.725 12.75H36.2365V11V9.16667C36.2365 8.23155 35.8755 7.32539 35.2183 6.64993C34.6794 6.09608 33.9765 5.73465 33.217 5.62143C33.1858 5.56142 33.1541 5.50168 33.1221 5.44219C33.4449 5.48162 33.7621 5.56652 34.0651 5.69549L34.7424 4.10446L34.0651 5.69549C34.4986 5.88006 34.8957 6.15192 35.2324 6.49795C35.5692 6.84409 35.8388 7.2576 36.0236 7.71606L37.6467 7.06191L36.0236 7.71607C36.2084 8.1746 36.3041 8.66765 36.3041 9.16667V11.2127V12.587L37.6392 12.9128C38.9389 13.23 40.1063 13.9908 40.9468 15.0837C41.7879 16.1774 42.25 17.5376 42.25 18.9445V39.7222C42.25 41.3803 41.6087 42.9612 40.4817 44.1194C39.3564 45.276 37.8405 45.9167 36.2703 45.9167H7.72973C6.15952 45.9167 4.6436 45.276 3.51826 44.1194C2.39133 42.9612 1.75 41.3803 1.75 39.7222V8.95655L1.77303 8.74481C1.87418 7.81501 2.30438 6.96589 2.96825 6.35559C3.63082 5.74648 4.47978 5.41671 5.35135 5.41667C5.35137 5.41667 5.35139 5.41667 5.35141 5.41667L9.05838 5.41667C9.02841 5.47199 8.99881 5.52755 8.96959 5.58333H5.35135C4.39842 5.58333 3.49454 5.97285 2.83576 6.64993C2.17855 7.32539 1.81757 8.23154 1.81757 9.16667C1.81757 10.1018 2.17855 11.0079 2.83576 11.6834C3.49454 12.3605 4.39842 12.75 5.35135 12.75H7.44171C7.44507 12.8056 7.44875 12.8612 7.45277 12.9167H3.56757H1.81757V14.6667V39.7222C1.81757 43.0045 4.42083 45.75 7.72973 45.75H36.2703C37.854 45.75 39.3628 45.103 40.4676 43.9674C41.5709 42.8336 42.1824 41.3057 42.1824 39.7222V18.9444C42.1824 17.361 41.5709 15.8331 40.4676 14.6992C39.3628 13.5637 37.854 12.9167 36.2703 12.9167H34.7139ZM31.5065 30.0204L31.5065 30.0204C31.4946 30.0083 31.4797 29.9818 31.4797 29.9444C31.4797 29.9071 31.4946 29.8806 31.5065 29.8685L30.2522 28.6481L31.5065 29.8685C31.511 29.8638 31.5143 29.8618 31.5158 29.8611H36.268C36.2694 29.8618 36.2728 29.8638 36.2773 29.8685C36.2892 29.8806 36.3041 29.9071 36.3041 29.9444C36.3041 29.9818 36.2892 30.0083 36.2773 30.0204L37.5316 31.2408L36.2773 30.0204C36.2751 30.0227 36.2732 30.0243 36.2716 30.0255C36.27 30.0267 36.2688 30.0274 36.268 30.0278H31.5158C31.5143 30.0271 31.511 30.0251 31.5065 30.0204Z" stroke="#8D78F7" stroke-width="3.5"/>
</svg>
