<svg width="25" height="25" viewBox="0 0 25 25" fill="none" xmlns="http://www.w3.org/2000/svg">
<path d="M12.5001 0.416626C5.818 0.416626 0.416748 5.81788 0.416748 12.5C0.416748 19.182 5.818 24.5833 12.5001 24.5833C19.1822 24.5833 24.5834 19.182 24.5834 12.5C24.5834 5.81788 19.1822 0.416626 12.5001 0.416626ZM17.6959 17.6958C17.5841 17.8078 17.4513 17.8967 17.3052 17.9573C17.159 18.018 17.0023 18.0492 16.844 18.0492C16.6858 18.0492 16.5291 18.018 16.3829 17.9573C16.2367 17.8967 16.104 17.8078 15.9922 17.6958L12.5001 14.2037L9.008 17.6958C8.78207 17.9217 8.47564 18.0486 8.15612 18.0486C7.83661 18.0486 7.53018 17.9217 7.30425 17.6958C7.07832 17.4699 6.95139 17.1634 6.95139 16.8439C6.95139 16.6857 6.98255 16.5291 7.04309 16.3829C7.10364 16.2367 7.19238 16.1039 7.30425 15.992L10.7963 12.5L7.30425 9.00788C7.07832 8.78194 6.95139 8.47552 6.95139 8.156C6.95139 7.83648 7.07832 7.53006 7.30425 7.30413C7.53018 7.07819 7.83661 6.95127 8.15612 6.95127C8.47564 6.95127 8.78207 7.07819 9.008 7.30413L12.5001 10.7962L15.9922 7.30413C16.104 7.19226 16.2368 7.10352 16.383 7.04297C16.5292 6.98243 16.6858 6.95127 16.844 6.95127C17.0022 6.95127 17.1589 6.98243 17.3051 7.04297C17.4512 7.10352 17.584 7.19226 17.6959 7.30413C17.8078 7.416 17.8965 7.5488 17.9571 7.69497C18.0176 7.84113 18.0488 7.99779 18.0488 8.156C18.0488 8.31421 18.0176 8.47087 17.9571 8.61703C17.8965 8.7632 17.8078 8.89601 17.6959 9.00788L14.2038 12.5L17.6959 15.992C18.1551 16.4512 18.1551 17.2245 17.6959 17.6958Z" fill="#EB6A5D"/>
</svg>
