<svg width="25" height="25" viewBox="0 0 25 25" fill="none" xmlns="http://www.w3.org/2000/svg">
<path d="M13.7084 8.87496H11.2917V6.45829H13.7084M13.7084 18.5416H11.2917V11.2916H13.7084M12.5001 0.416626C10.9133 0.416626 9.34201 0.729171 7.87599 1.33641C6.40997 1.94366 5.07792 2.83371 3.95587 3.95575C1.68981 6.22182 0.416748 9.29526 0.416748 12.5C0.416748 15.7047 1.68981 18.7781 3.95587 21.0442C5.07792 22.1662 6.40997 23.0563 7.87599 23.6635C9.34201 24.2707 10.9133 24.5833 12.5001 24.5833C15.7048 24.5833 18.7782 23.3102 21.0443 21.0442C23.3104 18.7781 24.5834 15.7047 24.5834 12.5C24.5834 10.9132 24.2709 9.34188 23.6636 7.87587C23.0564 6.40985 22.1663 5.07779 21.0443 3.95575C19.9222 2.83371 18.5902 1.94366 17.1242 1.33641C15.6582 0.729171 14.0869 0.416626 12.5001 0.416626Z" fill="#5B6CFE"/>
</svg>
