<svg width="27" height="28" viewBox="0 0 27 28" fill="none" xmlns="http://www.w3.org/2000/svg">
<path fill-rule="evenodd" clip-rule="evenodd" d="M13.5002 0.906494C6.15954 0.906494 0.208496 6.85754 0.208496 14.1982C0.208496 21.5388 6.15954 27.4898 13.5002 27.4898C20.8408 27.4898 26.7918 21.5388 26.7918 14.1982C26.7918 6.85754 20.8408 0.906494 13.5002 0.906494ZM19.2615 11.9507C19.3676 11.8294 19.4483 11.6881 19.499 11.5352C19.5497 11.3823 19.5693 11.2207 19.5567 11.0601C19.544 10.8995 19.4993 10.743 19.4253 10.5999C19.3513 10.4568 19.2494 10.3299 19.1256 10.2268C19.0018 10.1236 18.8587 10.0463 18.7046 9.99928C18.5505 9.95227 18.3885 9.93657 18.2282 9.95308C18.068 9.96959 17.9126 10.018 17.7713 10.0954C17.63 10.1729 17.5056 10.2778 17.4055 10.404L12.2097 16.6378L9.52112 13.948C9.29323 13.7279 8.988 13.6061 8.67118 13.6089C8.35436 13.6116 8.05129 13.7387 7.82726 13.9628C7.60322 14.1868 7.47614 14.4899 7.47339 14.8067C7.47064 15.1235 7.59243 15.4287 7.81254 15.6566L11.4375 19.2816C11.5563 19.4003 11.6984 19.4929 11.8549 19.5536C12.0114 19.6142 12.1788 19.6416 12.3465 19.634C12.5142 19.6264 12.6785 19.5839 12.8288 19.5093C12.9792 19.4347 13.1123 19.3296 13.2198 19.2007L19.2615 11.9507Z" fill="#82CB7C"/>
</svg>
